<svg xmlns="http://www.w3.org/2000/svg" viewBox="0 0 401.19 47.8"><defs><style>.cls-1{fill:#fff;}</style></defs><title>underline</title><g id="Layer_2" data-name="Layer 2"><g id="Layer_1-2" data-name="Layer 1"><path class="cls-1" d="M4.91,47.06a10.49,10.49,0,0,1-3.53-5.15A24.93,24.93,0,0,1,0,33.43,24.93,24.93,0,0,1,1.38,25l1.56-3.11a5.45,5.45,0,0,1,2.59-2.36A25.53,25.53,0,0,1,8.4,17.1a33.72,33.72,0,0,1,4.4-2.54,71.4,71.4,0,0,1,12.06-4.35A116.11,116.11,0,0,1,40.94,6.8l9.78-1.41c2.71-.38,5.47-.53,8.2-.79,11.32-1.09,22.68-1.51,34-2,21.18-.87,42.4-1,63.6-1.28Q190.49.84,224.44.86c22.19,0,44.38.64,66.56,1.3,21.61.65,43.22,1.1,64.85,1.09,5.17,0,10.35,0,15.53-.16a133.76,133.76,0,0,0,16.74-1.18A21.31,21.31,0,0,0,390.33.84L392.94,0a6.19,6.19,0,0,1,4.88,3.18c2.66,3.64,3.37,9,3.37,13.32s-.71,9.68-3.37,13.32l-2.27,2.34a4.47,4.47,0,0,1-5.22,0,22.49,22.49,0,0,0-2.27-1.1,134.93,134.93,0,0,0-16.32-1.29c-5-.21-10-.31-15-.42-11.23-.26-22.47-.51-33.7-.85-22.63-.68-45.25-1.57-67.88-2.23-21.89-.64-43.82-.39-65.71-.26-21,.13-41.94.64-62.9,1.15-11,.26-22.06.45-33.08,1-11.22.55-22.46,1-33.64,2.19-11.81,1.27-23.62,2.77-35,6.23a40.77,40.77,0,0,0-12.28,6.18c-1.12,2.63-2.86,5-5.27,5A4.7,4.7,0,0,1,4.91,47.06Z"/></g></g></svg>