<?xml version="1.0" encoding="UTF-8"?>
<svg width="48px" height="28px" viewBox="0 0 48 28" version="1.1" xmlns="http://www.w3.org/2000/svg" xmlns:xlink="http://www.w3.org/1999/xlink">
    <!-- Generator: Sketch 54.1 (76490) - https://sketchapp.com -->
    <title>ce</title>
    <desc>Created with Sketch.</desc>
    <g id="CE-REDUX" stroke="none" stroke-width="1" fill="none" fill-rule="evenodd">
        <g id="nav-switcher" transform="translate(-26.000000, -47.000000)" fill="#FFFFFF" fill-rule="nonzero">
            <g id="Header" transform="translate(24.000000, 25.000000)">
                <path d="M2.226,36.174 C2.226,28.489 7.526,22.765 15.264,22.765 C20.087,22.765 23.002,24.779 24.857,27.27 L21.677,30.185 C20.14,28.012 18.073,27.005 15.476,27.005 C10.441,27.005 7.208,30.874 7.208,36.174 C7.208,41.474 10.441,45.396 15.476,45.396 C18.073,45.396 20.14,44.336 21.677,42.216 L24.857,45.131 C23.002,47.622 20.087,49.636 15.264,49.636 C7.526,49.636 2.226,43.859 2.226,36.174 Z M24.5939999,36.174 C24.5939999,28.754 29.9469999,22.765 37.4199999,22.765 C45.1049999,22.765 49.8749999,28.754 49.8749999,36.598 L49.8749999,37.764 L29.6289999,37.764 C29.9999999,42.11 33.1799999,45.714 38.3209999,45.714 C41.0239999,45.714 43.9919999,44.654 45.8999999,42.693 L48.1259999,45.82 C45.5819999,48.311 41.9779999,49.636 37.8439999,49.636 C30.2119999,49.636 24.5939999,44.23 24.5939999,36.174 Z M37.4199999,26.687 C32.2789999,26.687 29.8409999,30.821 29.5759999,34.319 L45.2109999,34.319 C45.1049999,30.927 42.8259999,26.687 37.4199999,26.687 Z" id="ce"></path>
            </g>
        </g>
    </g>
</svg>