<!-- Generated by IcoMoon.io -->
<svg version="1.1" xmlns="http://www.w3.org/2000/svg" width="40" height="32" viewBox="0 0 40 32">
<title>medium</title>
<path fill="none" stroke="#fff" stroke-width="1.1429" stroke-miterlimit="4" stroke-linecap="butt" stroke-linejoin="miter" d="M5.615 7.205c0.047-0.459-0.13-0.914-0.475-1.223l-3.521-4.21v-0.629h10.934l8.451 18.395 7.43-18.395h10.423v0.629l-3.011 2.865c-0.26 0.196-0.388 0.519-0.335 0.838v21.050c-0.054 0.319 0.075 0.642 0.335 0.838l2.94 2.865v0.629h-14.79v-0.629l3.046-2.935c0.299-0.297 0.299-0.384 0.299-0.838v-17.015l-8.469 21.347h-1.144l-9.86-21.347v14.307c-0.082 0.602 0.119 1.207 0.546 1.642l3.962 4.769v0.629h-11.233v-0.629l3.962-4.769c0.424-0.436 0.613-1.045 0.511-1.642v-16.543z"></path>
</svg>
