<svg width="274px" height="40px" viewBox="0 0 274 40" version="1.1" xmlns="http://www.w3.org/2000/svg" xmlns:xlink="http://www.w3.org/1999/xlink">
    <title>Logo</title>
    <g id="Page-1" stroke="none" stroke-width="1" fill="none" fill-rule="evenodd">
        <g id="Logo" transform="translate(0.000000, -4.000000)">
            <text id="code-enigma" font-family="Omnes-Light, Omnes" font-size="40" font-weight="300" fill="#FFFFFF">
                <tspan x="60" y="32">code enigma</tspan>
            </text>
            <g transform="translate(0.000000, 4.000000)" id="Shape">
                <path d="M35,13 L30.5147601,3.5073041 C28.5719557,0.390299475 24.9741697,-0.884838781 22.4317343,0.65004986 L22,0.909800245 L33.1771218,11.9373848 L35,13 L35,13 Z" fill="#FF8000"></path>
                <path d="M35.5032051,13.2226165 L33.1467221,12 L34.6789312,13.8510964 C34.8677529,13.9939639 35.2907807,14.2510797 35.4559997,14.4177585 C36.9901757,15.846434 38.4063382,17.7705669 38.3827355,19.5087887 C38.3827355,20.5326729 38.0522976,21.5327457 37.4386272,22.3423285 L35.4559997,24.8663219 L30.0745823,31.7239643 C28.9180496,33.176451 26.9826275,33.72411 25,33.3669411 C25.5192596,33.9384113 26.1093273,34.3908252 26.699395,34.6765603 L27.667106,34.9861067 L28.6112143,35.295653 C31.9391962,36.7957623 35.597616,35.8195007 36.7777514,33.1288285 L40.6249928,24.413908 L41.6163065,22.1994609 C42.8200446,19.4849775 41.097047,16.0799675 37.7690651,14.5798583 L35.5032051,13.2226165 Z" fill="#FF9F00"></path>
                <path d="M18.1476914,3.28451888 L16.7164766,2.0807199 C14.6613072,0.525933549 12.193838,0.680953649 11.1883519,2.33831555 L4.61180983,10.3210992 L4.07988363,11.4813875 L0.815791048,18.5127348 L0.380578703,19.4177596 C-0.828344475,22.0400113 0.936683366,25.3584359 4.34584673,26.8203991 L17.6923586,31 L13.5576221,25.8544665 L11.7930979,23.7492108 L10.0277857,23.0842707 C9.12620725,22.6957651 8.37514897,22.1560754 7.82788723,21.5508497 C6.93685934,20.5654473 6.94998162,18.8386865 7.36938477,17.8754883 C7.36938477,17.8522825 8.17980957,16.8486328 8.17980957,16.8486328 L11.7930979,9.09119358 C12.5184518,7.53640723 14.5975153,7.02588037 16.9911832,8.04693409 L18.9012818,9.09119358 L31,15.2945133 C30.7098584,14.9464268 18.1476914,3.28451888 18.1476914,3.28451888 Z" fill="#FF9F00"></path>
                <path d="M40.4058669,24.4452006 L36.1367117,31.6528501 C34.9396429,34.2910393 31.2287296,35.2482584 27.8529955,33.7774095 L26.8953404,33.4739011 C26.5601612,33.4272074 26.2249819,33.3104734 25.913744,33.1703926 C25.3152096,32.8902309 24.8938945,32.633416 24.3671843,32.0497458 C24.1038291,31.7695841 23.6632546,31.2793012 23.4477822,30.9057522 L19.5692792,25.9095355 L16.313252,21.7304569 L12.8656938,17.2945635 C11.5010354,15.1466573 11.6446836,12.6718957 13.129049,11.7613702 L18.4440346,8.58620437 L16.5526658,7.53559804 C14.1824695,6.53168532 11.6925664,6.97527466 10.9743251,8.56285757 L8.22931763,15.8494703 L7,18.2291667 C7,18.2525135 10.6630872,23.061225 10.6630872,23.061225 L12.5544559,25.3959057 L16.5047831,30.3220821 L21.5085307,36.5323328 C23.4477822,39.6141114 27.0389887,40.874839 29.5767746,39.3572965 L39.8476251,33.2170862 C42.3614696,31.6995437 42.6883294,28.1858333 40.7490779,25.1040548 L40.4058669,24.4452006 Z" fill="#FF7F00"></path>
            </g>
        </g>
    </g>
</svg>
