<!-- Generated by IcoMoon.io -->
<svg version="1.1" xmlns="http://www.w3.org/2000/svg" width="30" height="32" viewBox="0 0 30 32">
<title>Email</title>
<path fill="#fff" d="M0 31.409c0 0.001 0 0.001 0 0.002 0 0.019 0.001 0.038 0.003 0.057 0.001 0.009 0.002 0.018 0.004 0.026 0.002 0.010 0.003 0.021 0.005 0.031s0.005 0.020 0.007 0.029c0.002 0.009 0.004 0.018 0.007 0.027s0.007 0.019 0.010 0.028c0.003 0.009 0.006 0.018 0.010 0.026s0.008 0.017 0.012 0.026c0.004 0.009 0.008 0.018 0.013 0.027s0.009 0.016 0.014 0.024c0.005 0.009 0.010 0.017 0.016 0.026s0.012 0.017 0.019 0.025c0.005 0.007 0.010 0.014 0.016 0.021 0.012 0.015 0.025 0.029 0.039 0.043 0 0 0 0 0 0 0.014 0.014 0.028 0.027 0.043 0.039 0.007 0.006 0.014 0.011 0.022 0.016 0.008 0.006 0.016 0.013 0.025 0.018s0.018 0.011 0.026 0.016c0.008 0.005 0.015 0.009 0.023 0.014 0.009 0.005 0.018 0.009 0.027 0.013s0.017 0.008 0.025 0.012c0.009 0.004 0.018 0.007 0.027 0.010s0.018 0.007 0.028 0.010c0.009 0.003 0.018 0.005 0.027 0.007s0.019 0.005 0.029 0.007c0.010 0.002 0.021 0.003 0.032 0.005 0.008 0.001 0.017 0.003 0.026 0.004 0.019 0.002 0.039 0.003 0.058 0.003h28.213c0.020 0 0.039-0.001 0.058-0.003 0.009-0.001 0.017-0.002 0.026-0.004 0.011-0.002 0.021-0.003 0.031-0.005s0.019-0.005 0.029-0.007c0.009-0.002 0.018-0.004 0.027-0.007s0.019-0.006 0.028-0.010c0.009-0.003 0.018-0.006 0.027-0.010s0.017-0.008 0.025-0.012c0.009-0.004 0.018-0.008 0.027-0.013s0.016-0.009 0.024-0.014c0.009-0.005 0.018-0.010 0.026-0.016s0.017-0.012 0.025-0.018c0.007-0.005 0.014-0.010 0.021-0.016 0.015-0.012 0.029-0.025 0.042-0.038 0-0 0.001-0.001 0.001-0.001s0.001-0.001 0.001-0.002c0.013-0.013 0.026-0.027 0.038-0.042 0.006-0.007 0.011-0.015 0.016-0.022s0.012-0.016 0.018-0.025c0.006-0.009 0.011-0.018 0.016-0.026 0.005-0.008 0.009-0.015 0.014-0.023 0.005-0.009 0.009-0.018 0.013-0.028s0.008-0.016 0.012-0.025c0.004-0.009 0.007-0.018 0.010-0.027s0.007-0.018 0.010-0.027c0.003-0.009 0.005-0.019 0.007-0.028s0.005-0.019 0.007-0.028c0.002-0.011 0.003-0.022 0.005-0.033 0.001-0.008 0.003-0.016 0.004-0.024 0.002-0.019 0.003-0.039 0.003-0.058v-16.722c0-0.001-0-0.002-0-0.003-0-0.018-0.001-0.036-0.003-0.054-0-0.001-0-0.001-0-0.002s-0-0.002-0-0.003c-0.001-0.007-0.002-0.014-0.003-0.021-0.001-0.009-0.003-0.018-0.004-0.026-0-0.002-0.001-0.004-0.001-0.006-0.002-0.009-0.005-0.019-0.007-0.028-0.002-0.008-0.004-0.016-0.006-0.024-0-0.001-0.001-0.002-0.001-0.003-0.002-0.006-0.004-0.011-0.006-0.017-0.001-0.004-0.002-0.007-0.004-0.010-0.003-0.008-0.005-0.016-0.008-0.023-0.001-0.001-0.001-0.002-0.002-0.004-0.004-0.008-0.008-0.017-0.012-0.025-0.001-0.003-0.003-0.006-0.004-0.008-0.002-0.005-0.004-0.010-0.007-0.015-0.001-0.001-0.002-0.002-0.002-0.004-0.004-0.008-0.009-0.016-0.014-0.023s-0.009-0.016-0.014-0.023c-0.001-0.001-0.002-0.002-0.002-0.003-0.003-0.004-0.006-0.008-0.009-0.013s-0.006-0.008-0.009-0.012c-0.005-0.007-0.009-0.013-0.015-0.020-0-0.001-0.001-0.001-0.001-0.002-0.007-0.009-0.015-0.017-0.023-0.025-0.005-0.006-0.011-0.012-0.016-0.018v-0c-0 0-0-0-0-0l-3.728-3.726v-1.684c0-0.326-0.265-0.591-0.592-0.591h-1.686l-8.101-8.094c-0.231-0.231-0.606-0.231-0.837 0l-8.1 8.094h-1.687c-0.327 0-0.592 0.265-0.592 0.591v1.686l-3.728 3.724c0 0 0 0 0 0-0.014 0.014-0.027 0.028-0.039 0.043-0.006 0.007-0.011 0.014-0.016 0.021-0.006 0.008-0.013 0.017-0.019 0.025s-0.011 0.017-0.016 0.026c-0.005 0.008-0.010 0.016-0.014 0.024-0.003 0.005-0.006 0.011-0.008 0.017-0.002 0.003-0.003 0.007-0.005 0.010-0.004 0.009-0.008 0.017-0.012 0.026s-0.006 0.018-0.010 0.026c-0.003 0.009-0.007 0.019-0.010 0.028-0.002 0.006-0.003 0.013-0.005 0.020-0.001 0.002-0.001 0.005-0.002 0.007-0.002 0.010-0.005 0.019-0.007 0.029-0 0.001-0 0.002-0.001 0.002-0.002 0.009-0.003 0.019-0.004 0.028s-0.003 0.018-0.004 0.026c0 0-0 0-0 0s-0 0.001-0 0.001c-0.001 0.012-0.001 0.025-0.002 0.037-0 0.006-0.001 0.013-0.001 0.019 0 0 0 0.001 0 0.001v16.723h-0zM4.074 19.002l4.049 4.046-6.94 6.934v-13.869l2.891 2.889zM2.020 30.818l6.94-6.934 5.32 5.316c0.111 0.111 0.261 0.173 0.418 0.173s0.307-0.062 0.418-0.173l5.32-5.316 6.939 6.934h-25.356zM28.213 16.113v13.869l-6.939-6.934 6.939-6.934zM27.968 14.686l-2.473 2.472v-4.944l2.473 2.472zM14.698 1.427l6.846 6.84h-13.691l6.845-6.84zM5.084 9.449h19.227v1.292c-0.002 0.029-0.002 0.059 0 0.089v7.511l-9.613 9.606-9.614-9.607v-8.891zM3.901 12.216v4.942l-2.473-2.471 2.473-2.471z"></path>
<path fill="#fff" d="M9.511 13.023h10.001c0.321 0 0.581-0.25 0.581-0.558s-0.26-0.558-0.581-0.558h-10.001c-0.321 0-0.581 0.25-0.581 0.558s0.26 0.558 0.581 0.558z"></path>
<path fill="#fff" d="M6.914 16h15.195c0.325 0 0.589-0.25 0.589-0.558s-0.264-0.558-0.589-0.558h-15.195c-0.325 0-0.589 0.25-0.589 0.558s0.263 0.558 0.589 0.558z"></path>
<path fill="#fff" d="M22.698 18.419c0-0.308-0.264-0.558-0.589-0.558h-15.195c-0.325 0-0.589 0.25-0.589 0.558s0.263 0.558 0.589 0.558h15.195c0.325 0 0.589-0.25 0.589-0.558z"></path>
<path fill="#fff" d="M19.721 21.395c0-0.308-0.26-0.558-0.58-0.558h-9.259c-0.32 0-0.58 0.25-0.58 0.558s0.26 0.558 0.58 0.558h9.259c0.32 0 0.58-0.25 0.58-0.558z"></path>
</svg>
