<svg aria-hidden="true" style="position: absolute; width: 0; height: 0; overflow: hidden;" version="1.1" xmlns="http://www.w3.org/2000/svg" xmlns:xlink="http://www.w3.org/1999/xlink">
<defs>
<symbol id="icon-quotation-marks" viewBox="0 0 32 32">
<title>quotation marks</title>
<path d="M8.416 6.72c-0.944 0.368-2.048 1.408-2.496 2.32-0.288 0.576-0.32 0.992-0.32 3.408v2.752h4.8v-4.48h-1.12c-1.008 0-1.12-0.032-1.12-0.32 0-0.544 0.928-1.424 1.616-1.536l0.624-0.112v-2.352h-0.592c-0.336 0.016-0.96 0.16-1.392 0.32z"></path>
<path d="M14.016 6.72c-0.944 0.368-2.048 1.408-2.496 2.32-0.288 0.576-0.32 0.992-0.32 3.408v2.752h4.8v-4.48h-1.12c-1.008 0-1.12-0.032-1.12-0.32 0-0.544 0.928-1.424 1.616-1.536l0.624-0.112v-2.352h-0.592c-0.336 0.016-0.96 0.16-1.392 0.32z"></path>
<path d="M16 19.040v2.24h1.12c1.248 0 1.344 0.128 0.848 0.96-0.272 0.464-1.264 1.12-1.712 1.12-0.208 0-0.256 0.192-0.256 1.12v1.12h0.528c1.408 0 3.264-1.232 3.936-2.608 0.304-0.624 0.336-0.992 0.336-3.44v-2.752h-4.8v2.24z"></path>
<path d="M21.6 19.040v2.24h1.12c1.248 0 1.344 0.128 0.848 0.96-0.272 0.464-1.264 1.12-1.712 1.12-0.208 0-0.256 0.192-0.256 1.12v1.12h0.528c1.408 0 3.264-1.232 3.936-2.608 0.304-0.624 0.336-0.992 0.336-3.44v-2.752h-4.8v2.24z"></path>
</symbol>
<symbol id="icon-gitlab" viewBox="0 0 28 28">
<title>gitlab</title>
<path d="M1.625 11.031l12.375 15.859-13.563-9.844c-0.375-0.281-0.531-0.766-0.391-1.203l1.578-4.813zM8.844 11.031h10.313l-5.156 15.859zM5.75 1.469l3.094 9.562h-7.219l3.094-9.562c0.172-0.484 0.859-0.484 1.031 0zM26.375 11.031l1.578 4.813c0.141 0.438-0.016 0.922-0.391 1.203l-13.563 9.844 12.375-15.859zM26.375 11.031h-7.219l3.094-9.562c0.172-0.484 0.859-0.484 1.031 0z"></path>
</symbol>
<symbol id="icon-linkedin" viewBox="0 0 32 32">
<title>linkedin</title>
<path d="M29 0h-26c-1.65 0-3 1.35-3 3v26c0 1.65 1.35 3 3 3h26c1.65 0 3-1.35 3-3v-26c0-1.65-1.35-3-3-3zM12 26h-4v-14h4v14zM10 10c-1.106 0-2-0.894-2-2s0.894-2 2-2c1.106 0 2 0.894 2 2s-0.894 2-2 2zM26 26h-4v-8c0-1.106-0.894-2-2-2s-2 0.894-2 2v8h-4v-14h4v2.481c0.825-1.131 2.087-2.481 3.5-2.481 2.488 0 4.5 2.238 4.5 5v9z"></path>
</symbol>
<symbol id="icon-github" viewBox="0 0 32 32">
<title>github</title>
<path d="M16 0.395c-8.836 0-16 7.163-16 16 0 7.069 4.585 13.067 10.942 15.182 0.8 0.148 1.094-0.347 1.094-0.77 0-0.381-0.015-1.642-0.022-2.979-4.452 0.968-5.391-1.888-5.391-1.888-0.728-1.849-1.776-2.341-1.776-2.341-1.452-0.993 0.11-0.973 0.11-0.973 1.606 0.113 2.452 1.649 2.452 1.649 1.427 2.446 3.743 1.739 4.656 1.33 0.143-1.034 0.558-1.74 1.016-2.14-3.554-0.404-7.29-1.777-7.29-7.907 0-1.747 0.625-3.174 1.649-4.295-0.166-0.403-0.714-2.030 0.155-4.234 0 0 1.344-0.43 4.401 1.64 1.276-0.355 2.645-0.532 4.005-0.539 1.359 0.006 2.729 0.184 4.008 0.539 3.054-2.070 4.395-1.64 4.395-1.64 0.871 2.204 0.323 3.831 0.157 4.234 1.026 1.12 1.647 2.548 1.647 4.295 0 6.145-3.743 7.498-7.306 7.895 0.574 0.497 1.085 1.47 1.085 2.963 0 2.141-0.019 3.864-0.019 4.391 0 0.426 0.288 0.925 1.099 0.768 6.354-2.118 10.933-8.113 10.933-15.18 0-8.837-7.164-16-16-16z"></path>
</symbol>
<symbol id="icon-drupal" viewBox="0 0 32 32">
<title>drupal</title>
<path fill="#000000" d="M27.267 4.736c-2.923-3.060-6.956-4.728-11.267-4.728-8.759 0-15.991 7.229-15.991 15.992s7.231 15.992 15.991 15.992 15.993-7.229 15.993-15.992c0-4.311-1.668-8.344-4.728-11.264zM16 26.429c-4.867 0-8.76-3.893-8.76-8.76 0-4.033 2.78-6.815 5.144-9.179 1.669-1.669 3.2-3.2 3.616-5.007 0.417 1.669 1.947 3.199 3.616 4.867 2.364 2.365 5.145 5.147 5.145 9.179 0 4.867-3.893 8.761-8.761 8.9z"></path>
</symbol>
<symbol id="icon-down-active" viewBox="0 0 54 32">
<title>down-active</title>
<path stroke-width="7.3846" stroke-miterlimit="4" stroke-linecap="square" stroke-linejoin="miter" d="M46.769 7.385l-19.494 19.494"></path>
<path stroke-width="7.3846" stroke-miterlimit="4" stroke-linecap="square" stroke-linejoin="miter" d="M7.385 7.385l19.494 19.494"></path>
</symbol>
<symbol id="icon-close" viewBox="0 0 32 32">
<title>close</title>
<path stroke-width="4" stroke-miterlimit="4" stroke-linecap="square" stroke-linejoin="miter" d="M28 4l-24 24"></path>
<path stroke-width="4" stroke-miterlimit="4" stroke-linecap="square" stroke-linejoin="miter" d="M4 4l24 24"></path>
</symbol>
<symbol id="icon-medium" viewBox="0 0 40 32">
<title>medium</title>
<path stroke-width="1.1429" stroke-miterlimit="4" stroke-linecap="butt" stroke-linejoin="miter" style="stroke: var(--color1, #fff)" d="M5.615 7.205c0.047-0.459-0.13-0.914-0.475-1.223l-3.521-4.21v-0.629h10.934l8.451 18.395 7.43-18.395h10.423v0.629l-3.011 2.865c-0.26 0.196-0.388 0.519-0.335 0.838v21.050c-0.054 0.319 0.075 0.642 0.335 0.838l2.94 2.865v0.629h-14.79v-0.629l3.046-2.935c0.299-0.297 0.299-0.384 0.299-0.838v-17.015l-8.469 21.347h-1.144l-9.86-21.347v14.307c-0.082 0.602 0.119 1.207 0.546 1.642l3.962 4.769v0.629h-11.233v-0.629l3.962-4.769c0.424-0.436 0.613-1.045 0.511-1.642v-16.543z"></path>
</symbol>
<symbol id="icon-open-envelope-with-letter" viewBox="0 0 30 32">
<title>email</title>
<path d="M0 31.409c0 0.001 0 0.001 0 0.002 0 0.019 0.001 0.038 0.003 0.057 0.001 0.009 0.002 0.018 0.004 0.026 0.002 0.010 0.003 0.021 0.005 0.031s0.005 0.020 0.007 0.029c0.002 0.009 0.004 0.018 0.007 0.027s0.007 0.019 0.010 0.028c0.003 0.009 0.006 0.018 0.010 0.026s0.008 0.017 0.012 0.026c0.004 0.009 0.008 0.018 0.013 0.027s0.009 0.016 0.014 0.024c0.005 0.009 0.010 0.017 0.016 0.026s0.012 0.017 0.019 0.025c0.005 0.007 0.010 0.014 0.016 0.021 0.012 0.015 0.025 0.029 0.039 0.043 0 0 0 0 0 0 0.014 0.014 0.028 0.027 0.043 0.039 0.007 0.006 0.014 0.011 0.022 0.016 0.008 0.006 0.016 0.013 0.025 0.018s0.018 0.011 0.026 0.016c0.008 0.005 0.015 0.009 0.023 0.014 0.009 0.005 0.018 0.009 0.027 0.013s0.017 0.008 0.025 0.012c0.009 0.004 0.018 0.007 0.027 0.010s0.018 0.007 0.028 0.010c0.009 0.003 0.018 0.005 0.027 0.007s0.019 0.005 0.029 0.007c0.010 0.002 0.021 0.003 0.032 0.005 0.008 0.001 0.017 0.003 0.026 0.004 0.019 0.002 0.039 0.003 0.058 0.003h28.213c0.020 0 0.039-0.001 0.058-0.003 0.009-0.001 0.017-0.002 0.026-0.004 0.011-0.002 0.021-0.003 0.031-0.005s0.019-0.005 0.029-0.007c0.009-0.002 0.018-0.004 0.027-0.007s0.019-0.006 0.028-0.010c0.009-0.003 0.018-0.006 0.027-0.010s0.017-0.008 0.025-0.012c0.009-0.004 0.018-0.008 0.027-0.013s0.016-0.009 0.024-0.014c0.009-0.005 0.018-0.010 0.026-0.016s0.017-0.012 0.025-0.018c0.007-0.005 0.014-0.010 0.021-0.016 0.015-0.012 0.029-0.025 0.042-0.038 0-0 0.001-0.001 0.001-0.001s0.001-0.001 0.001-0.002c0.013-0.013 0.026-0.027 0.038-0.042 0.006-0.007 0.011-0.015 0.016-0.022s0.012-0.016 0.018-0.025c0.006-0.009 0.011-0.018 0.016-0.026 0.005-0.008 0.009-0.015 0.014-0.023 0.005-0.009 0.009-0.018 0.013-0.028s0.008-0.016 0.012-0.025c0.004-0.009 0.007-0.018 0.010-0.027s0.007-0.018 0.010-0.027c0.003-0.009 0.005-0.019 0.007-0.028s0.005-0.019 0.007-0.028c0.002-0.011 0.003-0.022 0.005-0.033 0.001-0.008 0.003-0.016 0.004-0.024 0.002-0.019 0.003-0.039 0.003-0.058v-16.722c0-0.001-0-0.002-0-0.003-0-0.018-0.001-0.036-0.003-0.054-0-0.001-0-0.001-0-0.002s-0-0.002-0-0.003c-0.001-0.007-0.002-0.014-0.003-0.021-0.001-0.009-0.003-0.018-0.004-0.026-0-0.002-0.001-0.004-0.001-0.006-0.002-0.009-0.005-0.019-0.007-0.028-0.002-0.008-0.004-0.016-0.006-0.024-0-0.001-0.001-0.002-0.001-0.003-0.002-0.006-0.004-0.011-0.006-0.017-0.001-0.004-0.002-0.007-0.004-0.010-0.003-0.008-0.005-0.016-0.008-0.023-0.001-0.001-0.001-0.002-0.002-0.004-0.004-0.008-0.008-0.017-0.012-0.025-0.001-0.003-0.003-0.006-0.004-0.008-0.002-0.005-0.004-0.010-0.007-0.015-0.001-0.001-0.002-0.002-0.002-0.004-0.004-0.008-0.009-0.016-0.014-0.023s-0.009-0.016-0.014-0.023c-0.001-0.001-0.002-0.002-0.002-0.003-0.003-0.004-0.006-0.008-0.009-0.013s-0.006-0.008-0.009-0.012c-0.005-0.007-0.009-0.013-0.015-0.020-0-0.001-0.001-0.001-0.001-0.002-0.007-0.009-0.015-0.017-0.023-0.025-0.005-0.006-0.011-0.012-0.016-0.018v-0c-0 0-0-0-0-0l-3.728-3.726v-1.684c0-0.326-0.265-0.591-0.592-0.591h-1.686l-8.101-8.094c-0.231-0.231-0.606-0.231-0.837 0l-8.1 8.094h-1.687c-0.327 0-0.592 0.265-0.592 0.591v1.686l-3.728 3.724c0 0 0 0 0 0-0.014 0.014-0.027 0.028-0.039 0.043-0.006 0.007-0.011 0.014-0.016 0.021-0.006 0.008-0.013 0.017-0.019 0.025s-0.011 0.017-0.016 0.026c-0.005 0.008-0.010 0.016-0.014 0.024-0.003 0.005-0.006 0.011-0.008 0.017-0.002 0.003-0.003 0.007-0.005 0.010-0.004 0.009-0.008 0.017-0.012 0.026s-0.006 0.018-0.010 0.026c-0.003 0.009-0.007 0.019-0.010 0.028-0.002 0.006-0.003 0.013-0.005 0.020-0.001 0.002-0.001 0.005-0.002 0.007-0.002 0.010-0.005 0.019-0.007 0.029-0 0.001-0 0.002-0.001 0.002-0.002 0.009-0.003 0.019-0.004 0.028s-0.003 0.018-0.004 0.026c0 0-0 0-0 0s-0 0.001-0 0.001c-0.001 0.012-0.001 0.025-0.002 0.037-0 0.006-0.001 0.013-0.001 0.019 0 0 0 0.001 0 0.001v16.723h-0zM4.074 19.002l4.049 4.046-6.94 6.934v-13.869l2.891 2.889zM2.020 30.818l6.94-6.934 5.32 5.316c0.111 0.111 0.261 0.173 0.418 0.173s0.307-0.062 0.418-0.173l5.32-5.316 6.939 6.934h-25.356zM28.213 16.113v13.869l-6.939-6.934 6.939-6.934zM27.968 14.686l-2.473 2.472v-4.944l2.473 2.472zM14.698 1.427l6.846 6.84h-13.691l6.845-6.84zM5.084 9.449h19.227v1.292c-0.002 0.029-0.002 0.059 0 0.089v7.511l-9.613 9.606-9.614-9.607v-8.891zM3.901 12.216v4.942l-2.473-2.471 2.473-2.471z"></path>
<path  d="M9.511 13.023h10.001c0.321 0 0.581-0.25 0.581-0.558s-0.26-0.558-0.581-0.558h-10.001c-0.321 0-0.581 0.25-0.581 0.558s0.26 0.558 0.581 0.558z"></path>
<path  d="M6.914 16h15.195c0.325 0 0.589-0.25 0.589-0.558s-0.264-0.558-0.589-0.558h-15.195c-0.325 0-0.589 0.25-0.589 0.558s0.263 0.558 0.589 0.558z"></path>
<path  d="M22.698 18.419c0-0.308-0.264-0.558-0.589-0.558h-15.195c-0.325 0-0.589 0.25-0.589 0.558s0.263 0.558 0.589 0.558h15.195c0.325 0 0.589-0.25 0.589-0.558z"></path>
<path  d="M19.721 21.395c0-0.308-0.26-0.558-0.58-0.558h-9.259c-0.32 0-0.58 0.25-0.58 0.558s0.26 0.558 0.58 0.558h9.259c0.32 0 0.58-0.25 0.58-0.558z"></path>
</symbol>
<symbol id="icon-twitter" viewBox="0 0 36 32">
<title>twitter</title>
<path  d="M35.020 4.219c-0.207-0.122-0.467-0.098-0.649 0.060-0.304 0.264-0.631 0.498-0.975 0.702 0.446-0.896 0.72-1.873 0.804-2.892 0.020-0.238-0.117-0.473-0.332-0.57s-0.477-0.045-0.639 0.129c-0.758 0.812-1.704 1.419-2.743 1.766-1.38-1.678-3.265-2.561-5.488-2.561-4.291 0-7.782 3.546-7.782 7.904 0 0.176 0.006 0.353 0.017 0.53-0.625 0.079-1.255 0.119-1.879 0.119-2.45 0-4.883-0.611-7.034-1.766-0.275-0.148-2.92-1.6-3.066-1.32s-0.017 0.612 0.198 0.786c2.313 1.87 7.268 3.446 9.902 3.446 0.86 0 1.73-0.071 2.585-0.21 0.303-0.049 0.511-0.336 0.469-0.644-0.043-0.312-0.064-0.628-0.064-0.94 0-3.727 2.985-6.759 6.654-6.759 4.596 0 6.654 4.392 6.654 8.745 0 1.882-0.45 5.639-1.023 7.443-0.095 0.297 1.090-0.017 1.198-0.321 0.631-1.771 0.953-5.149 0.953-7.122 0-0.477-0.023-0.947-0.066-1.407 1.336-1.165 2.252-2.767 2.579-4.515 0.044-0.239-0.064-0.48-0.271-0.602zM31.749 5.5c-0.173-0.393-0.367-0.766-0.581-1.118 0.564-0.217 1.1-0.501 1.599-0.844-0.227 0.703-0.571 1.363-1.018 1.962zM32.51 7.948c-0.083-0.417-0.185-0.822-0.305-1.214 0.522-0.153 1.028-0.361 1.508-0.622-0.299 0.672-0.706 1.293-1.204 1.836z"></path>
<path d="M30.815 17.503c-3.102 8.385-11.606 12.285-15.883 12.783-4.721 0.549-9.298-0.096-12.403-1.692 2.991-0.511 5.845-1.699 8.336-3.479 0.356-0.255 0.294-0.827-0.107-0.997-2.018-0.855-3.834-2.153-5.313-3.789h2.69c0.286 0 0.533-0.227 0.561-0.516s-0.17-0.561-0.45-0.618c-0.053-0.011-4.941-1.066-6.394-6.142l2.443 1.117c0.241 0.11 0.534 0.031 0.689-0.187 0.159-0.225 0.135-0.543-0.058-0.739-0.042-0.043-3.98-4.14-2.328-8.998 0.88 1.14 1.902 2.156 3.048 3.029 0.249 0.19 0.269-0.442 0.789-0.115s3.734 1.263 2.665 0.956c-2.409-0.693-5.239-3.971-6.174-5.35-0.24-0.355-0.785-0.313-0.971 0.073-1.191 2.476-1.191 5.205 0.002 7.892 0.243 0.548 0.512 1.041 0.775 1.469l-1.451-0.663c-0.404-0.185-0.862 0.176-0.787 0.619 0.597 3.546 2.609 5.577 4.192 6.657 0.198 0.135 0.394 0.259 0.586 0.372h-1.044c-0.46 0-0.728 0.557-0.444 0.926 1.502 1.952 3.424 3.538 5.6 4.632-2.588 1.652-5.536 2.658-8.586 2.923-0.51 0.044-0.698 0.734-0.28 1.037 2.617 1.898 6.597 2.93 11.049 2.93 1.139 0 2.309-0.068 3.494-0.206 2.956-0.344 6.189-1.555 8.87-3.322 3.49-2.301 6.606-6.767 8.024-10.599 0.109-0.296-1.029-0.296-1.139 0z"></path>
<path d="M24.996 4.519c-0.974 0-1.767 0.805-1.767 1.795s0.793 1.795 1.767 1.795c0.974 0 1.767-0.805 1.767-1.795s-0.793-1.795-1.767-1.795zM24.996 6.963c-0.352 0-0.639-0.291-0.639-0.649s0.287-0.649 0.639-0.649 0.639 0.291 0.639 0.649c0 0.358-0.287 0.649-0.639 0.649z"></path>
</symbol>
</defs>
</svg>
