<!-- Generated by IcoMoon.io -->
<svg version="1.1" xmlns="http://www.w3.org/2000/svg" width="36" height="32" viewBox="0 0 36 32">
<title>twitter</title>
<path fill="#fff" d="M35.020 4.219c-0.207-0.122-0.467-0.098-0.649 0.060-0.304 0.264-0.631 0.498-0.975 0.702 0.446-0.896 0.72-1.873 0.804-2.892 0.020-0.238-0.117-0.473-0.332-0.57s-0.477-0.045-0.639 0.129c-0.758 0.812-1.704 1.419-2.743 1.766-1.38-1.678-3.265-2.561-5.488-2.561-4.291 0-7.782 3.546-7.782 7.904 0 0.176 0.006 0.353 0.017 0.53-0.625 0.079-1.255 0.119-1.879 0.119-2.45 0-4.883-0.611-7.034-1.766-0.275-0.148-2.92-1.6-3.066-1.32s-0.017 0.612 0.198 0.786c2.313 1.87 7.268 3.446 9.902 3.446 0.86 0 1.73-0.071 2.585-0.21 0.303-0.049 0.511-0.336 0.469-0.644-0.043-0.312-0.064-0.628-0.064-0.94 0-3.727 2.985-6.759 6.654-6.759 4.596 0 6.654 4.392 6.654 8.745 0 1.882-0.45 5.639-1.023 7.443-0.095 0.297 1.090-0.017 1.198-0.321 0.631-1.771 0.953-5.149 0.953-7.122 0-0.477-0.023-0.947-0.066-1.407 1.336-1.165 2.252-2.767 2.579-4.515 0.044-0.239-0.064-0.48-0.271-0.602zM31.749 5.5c-0.173-0.393-0.367-0.766-0.581-1.118 0.564-0.217 1.1-0.501 1.599-0.844-0.227 0.703-0.571 1.363-1.018 1.962zM32.51 7.948c-0.083-0.417-0.185-0.822-0.305-1.214 0.522-0.153 1.028-0.361 1.508-0.622-0.299 0.672-0.706 1.293-1.204 1.836z"></path>
<path fill="#fff" d="M30.815 17.503c-3.102 8.385-11.606 12.285-15.883 12.783-4.721 0.549-9.298-0.096-12.403-1.692 2.991-0.511 5.845-1.699 8.336-3.479 0.356-0.255 0.294-0.827-0.107-0.997-2.018-0.855-3.834-2.153-5.313-3.789h2.69c0.286 0 0.533-0.227 0.561-0.516s-0.17-0.561-0.45-0.618c-0.053-0.011-4.941-1.066-6.394-6.142l2.443 1.117c0.241 0.11 0.534 0.031 0.689-0.187 0.159-0.225 0.135-0.543-0.058-0.739-0.042-0.043-3.98-4.14-2.328-8.998 0.88 1.14 1.902 2.156 3.048 3.029 0.249 0.19 0.269-0.442 0.789-0.115s3.734 1.263 2.665 0.956c-2.409-0.693-5.239-3.971-6.174-5.35-0.24-0.355-0.785-0.313-0.971 0.073-1.191 2.476-1.191 5.205 0.002 7.892 0.243 0.548 0.512 1.041 0.775 1.469l-1.451-0.663c-0.404-0.185-0.862 0.176-0.787 0.619 0.597 3.546 2.609 5.577 4.192 6.657 0.198 0.135 0.394 0.259 0.586 0.372h-1.044c-0.46 0-0.728 0.557-0.444 0.926 1.502 1.952 3.424 3.538 5.6 4.632-2.588 1.652-5.536 2.658-8.586 2.923-0.51 0.044-0.698 0.734-0.28 1.037 2.617 1.898 6.597 2.93 11.049 2.93 1.139 0 2.309-0.068 3.494-0.206 2.956-0.344 6.189-1.555 8.87-3.322 3.49-2.301 6.606-6.767 8.024-10.599 0.109-0.296-1.029-0.296-1.139 0z"></path>
<path fill="#fff" d="M24.996 4.519c-0.974 0-1.767 0.805-1.767 1.795s0.793 1.795 1.767 1.795c0.974 0 1.767-0.805 1.767-1.795s-0.793-1.795-1.767-1.795zM24.996 6.963c-0.352 0-0.639-0.291-0.639-0.649s0.287-0.649 0.639-0.649 0.639 0.291 0.639 0.649c0 0.358-0.287 0.649-0.639 0.649z"></path>
</svg>
