<svg width="32" height="32" viewBox="0 0 32 32" fill="none" xmlns="http://www.w3.org/2000/svg">
<path d="M27.2716 4.73037C24.3472 1.66883 20.3122 0 15.999 0C7.23562 0 0 7.23262 0 16C0 24.7674 7.23462 32 15.999 32C24.7634 32 32 24.7674 32 16C32 11.6868 30.3312 7.65183 27.2696 4.73037H27.2716ZM15.999 26.4342C11.1296 26.4342 7.23462 22.5393 7.23462 17.6698C7.23462 13.6348 10.016 10.8514 12.3812 8.48624C14.051 6.81641 15.5828 5.28464 15.999 3.47674C16.4162 5.14657 17.947 6.67734 19.6168 8.34617C21.982 10.7124 24.7644 13.4957 24.7644 17.5298C24.7644 22.3992 20.8694 26.2951 15.999 26.4342V26.4342Z" fill="#F6F5F4"/>
</svg>
