<svg width="32" height="32" viewBox="0 0 32 32" fill="none" xmlns="http://www.w3.org/2000/svg">
<path d="M32 6.075C30.8252 6.6 29.5565 6.95 28.2317 7.106C29.5875 6.293 30.6253 5.006 31.1182 3.475C29.8494 4.225 28.4437 4.775 26.9499 5.069C25.7502 3.794 24.0445 3 22.1568 3C18.5325 3 15.5951 5.938 15.5951 9.563C15.5951 10.075 15.6511 10.575 15.764 11.057C10.3091 10.782 5.47197 8.169 2.23558 4.195C1.67269 5.164 1.34875 6.295 1.34875 7.495C1.34875 9.77 2.50453 11.782 4.2672 12.958C3.1924 12.927 2.18059 12.627 1.29276 12.139C1.29276 12.164 1.29276 12.195 1.29276 12.22C1.29276 15.401 3.55533 18.058 6.56077 18.657C6.01087 18.807 5.42998 18.888 4.83009 18.888C4.40517 18.888 3.99925 18.844 3.59333 18.769C4.43117 21.375 6.85571 23.275 9.72318 23.332C7.4736 25.094 4.64913 26.145 1.56871 26.145C1.03781 26.145 0.518903 26.114 0 26.051C2.91245 27.92 6.36081 29.001 10.0671 29.001C22.1398 29.001 28.7446 18.995 28.7446 10.32C28.7446 10.033 28.7386 9.751 28.7256 9.47C30.0064 8.551 31.1192 7.395 32 6.076V6.075Z" fill="#F6F5F4"/>
</svg>
